<?xml version="1.0" encoding="UTF-8"?>
<svg id="Layer_2" data-name="Layer 2" xmlns="http://www.w3.org/2000/svg" viewBox="0 0 63.94 63.93">
  <defs>
    <style>
      .cls-1 {
        fill: #fff;
        fill-rule: evenodd;
      }

      .cls-2 {
        fill: #e41e27;
      }
    </style>
  </defs>
  <g id="Layer_1-2" data-name="Layer 1">
    <g>
      <path class="cls-1" d="M50.13,54.45c.57-.49,1.85,0,3.37,1.14.64-.59,1.26-1.2,1.85-1.83-1.17-1.45-1.69-2.7-1.23-3.28.47-.59,1.84-.36,3.56.48.51-.69,1-1.41,1.46-2.15-1.45-1.21-2.21-2.34-1.87-3.01.35-.68,1.75-.71,3.63-.22.37-.78.7-1.57,1-2.38-1.68-.91-2.67-1.88-2.46-2.6.21-.73,1.6-1.04,3.55-.92.2-.83.37-1.67.51-2.53-1.84-.56-3.01-1.33-2.95-2.08s1.38-1.34,3.34-1.6c.04-.86.05-1.72.02-2.57-1.94-.19-3.26-.71-3.35-1.47-.09-.77,1.11-1.6,3.01-2.23-.13-.85-.28-1.69-.48-2.51-1.97.2-3.38-.05-3.62-.78-.24-.74.79-1.8,2.55-2.8-.29-.8-.61-1.59-.96-2.36-1.91.59-3.36.62-3.74-.05-.38-.68.43-1.93,1.98-3.26-.44-.73-.91-1.43-1.4-2.12-1.77.96-3.19,1.28-3.7.69s.05-1.99,1.32-3.61c-.57-.62-1.17-1.22-1.78-1.8-1.55,1.3-2.9,1.9-3.51,1.41-.62-.49-.33-1.98.61-3.83-.68-.5-1.38-.96-2.1-1.41-1.28,1.6-2.49,2.45-3.19,2.09-.71-.36-.71-1.89-.14-3.9-.76-.35-1.54-.67-2.33-.96-.94,1.82-1.97,2.91-2.73,2.69-.77-.22-1.07-1.71-.9-3.8-.81-.19-1.64-.35-2.48-.48-.57,1.97-1.37,3.23-2.15,3.17s-1.38-1.47-1.62-3.55c-.85-.03-1.69-.03-2.52,0-.17,2.05-.71,3.44-1.49,3.53-.79.09-1.64-1.17-2.28-3.16-.84.13-1.66.3-2.47.5.23,2.04-.02,3.51-.77,3.75-.76.24-1.83-.82-2.85-2.64-.79.29-1.57.62-2.33.98.62,1.95.65,3.43-.03,3.81-.69.39-1.95-.44-3.3-2.02-.72.44-1.42.92-2.1,1.42.97,1.78,1.29,3.21.7,3.72s-1.99-.05-3.61-1.32c-.62.58-1.21,1.18-1.78,1.81,1.29,1.54,1.87,2.88,1.39,3.49-.49.61-1.95.34-3.77-.58-.49.69-.96,1.4-1.4,2.13,1.55,1.25,2.37,2.44,2.02,3.13-.35.69-1.82.71-3.77.18-.35.77-.67,1.56-.96,2.37,1.74.92,2.77,1.92,2.56,2.66-.21.74-1.63,1.05-3.62.91-.19.83-.35,1.67-.47,2.52,1.86.56,3.04,1.33,2.98,2.09s-1.37,1.34-3.33,1.6c-.03.87-.02,1.72.02,2.58,1.91.19,3.21.71,3.29,1.46.09.76-1.07,1.57-2.92,2.2.14.86.31,1.7.52,2.53,1.9-.18,3.25.08,3.48.8.23.72-.73,1.73-2.4,2.71.3.81.64,1.61,1.01,2.39,1.81-.53,3.17-.54,3.53.11.37.66-.37,1.83-1.79,3.1.46.74.95,1.46,1.46,2.16,1.65-.86,2.97-1.12,3.45-.56s0,1.85-1.14,3.36c.59.64,1.21,1.25,1.86,1.84,1.44-1.15,2.68-1.66,3.26-1.2.58.46.36,1.81-.45,3.5.7.51,1.43.99,2.18,1.44,1.19-1.4,2.29-2.14,2.95-1.8.66.34.71,1.69.25,3.51.79.36,1.6.69,2.42.99.89-1.6,1.83-2.53,2.53-2.33.71.2,1.02,1.52.93,3.38.84.2,1.7.37,2.57.5.56-1.74,1.3-2.82,2.02-2.77s1.3,1.28,1.57,3.12c.88.04,1.76.04,2.62,0,.21-1.81.72-3.03,1.45-3.11.74-.09,1.52,1.01,2.15,2.77.87-.13,1.73-.3,2.57-.5-.15-1.83.11-3.12.81-3.35.71-.23,1.7.7,2.66,2.31.82-.3,1.63-.63,2.42-.99-.51-1.77-.51-3.1.14-3.46.65-.36,1.81.36,3.07,1.76.75-.45,1.47-.93,2.18-1.44-.85-1.64-1.11-2.95-.55-3.43ZM29.85,58.39c-14.48-1.16-25.27-13.84-24.11-28.31S19.58,4.81,34.06,5.97c14.48,1.16,25.27,13.84,24.11,28.31-1.16,14.48-13.84,25.27-28.31,24.11Z"/>
      <g>
        <path class="cls-2" d="M23.3,44.07c0,1.71-1.39,3.1-3.1,3.1s-3.1-1.39-3.1-3.1,1.39-3.1,3.1-3.1c1.71,0,3.1,1.39,3.1,3.1"/>
        <path class="cls-2" d="M50.28,40.85c-1.99-14.04-13.1-25.17-27.16-27.16-1.67.85-3.16,1.97-4.49,3.24v3c14.02,0,25.41,11.41,25.41,25.41h3c1.27-1.33,2.36-2.84,3.24-4.49"/>
        <path class="cls-2" d="M52.6,31.46c0-11.1-8.99-20.09-20.09-20.09-.69,0-1.39.04-2.06.12l-.46,1.31c9.89,3.45,17.73,11.3,21.18,21.16l1.35-.46c.02-.66.08-1.33.08-2.04"/>
        <path class="cls-2" d="M32.73,55.36c-6.39,0-12.37-2.48-16.89-7.01-4.53-4.53-7.01-10.52-7.01-16.89-.02-6.39,2.48-12.39,6.99-16.91l1.27,1.27c-4.17,4.17-6.47,9.71-6.47,15.62s2.3,11.45,6.47,15.62,9.71,6.47,15.62,6.47,11.45-2.3,15.62-6.47l1.27,1.27c-4.49,4.53-10.5,7.03-16.87,7.03"/>
        <path class="cls-2" d="M32.47,46.71c.5-4.98-1.73-9.63-5.46-12.47-1.97-1.49-4.37-2.46-6.99-2.74-.69-.08-1.17-.67-1.11-1.35.08-.75.69-1.19,1.37-1.11,2.86.3,5.46,1.29,7.66,2.82,4.74,3.28,7.62,8.95,7.01,15.11-.1.97-.3,1.91-.54,2.82l3.63,1.03c1.07-.32,2.14-.69,3.16-1.17.26-1.39.4-2.82.4-4.29,0-11.51-8.5-21.04-19.55-22.69-1.33-.2-2.66-.22-3.65.04-1.57.38-2.92,1.25-3.95,2.42-1.21,1.37-1.95,3.18-1.95,5.18,0,3.49,2.3,6.45,5.44,7.44.6.2,1.51.28,1.97.36h.02c3.45.6,6.09,3.61,6.09,7.25,0,1.45-.42,2.82-1.17,3.95l2.5,1.61c1.21.34,2.46.54,3.75.64.71-1.51,1.19-3.14,1.37-4.84"/>
      </g>
    </g>
  </g>
</svg>