<svg width="76" height="76" viewBox="0 0 76 76" fill="none" xmlns="http://www.w3.org/2000/svg">
<path fill-rule="evenodd" clip-rule="evenodd" d="M31.7286 0.854861C32.5086 4.48745 35.5212 4.6759 35.5235 1.09232L35.5242 0H36.664H37.8038L37.805 0.617399C37.8088 2.86017 39.4788 4.38487 40.6112 3.17932C41.1412 2.6153 41.6032 1.48841 41.6032 0.760066C41.6032 0.0558509 41.8209 -0.0444528 42.9319 0.147416L43.7856 0.295022L43.725 1.61987C43.5696 5.02506 46.449 5.62802 47.3298 2.37461C47.4431 1.95668 47.5635 1.51424 47.5975 1.39152C47.644 1.2234 47.9024 1.23233 48.6402 1.42686C49.3428 1.61226 49.6413 1.68954 49.7002 1.85312C49.7442 1.97514 49.6548 2.14519 49.5002 2.44395C49.0071 3.3976 49.0608 5.049 49.6041 5.63011C50.5477 6.63904 52.7259 5.48612 53.1007 3.77943C53.1697 3.46599 53.2852 3.23517 53.3574 3.2669C53.4297 3.29862 53.8919 3.49543 54.3843 3.7044C55.3382 4.10922 55.4314 4.25949 55.023 4.73422C53.8657 6.0792 54.2293 8.54861 55.5848 8.54861C56.6138 8.54861 58.5105 7.08395 58.5105 6.28911C58.5105 5.90728 59.5158 6.4599 60.3819 7.3178C60.4185 7.35408 60.2367 7.66734 59.978 8.01365C57.6942 11.0704 60.0756 13.2296 62.819 10.5896L63.613 9.82539L64.3862 10.4378C65.3096 11.1692 65.314 11.1975 64.5971 11.8364C61.6735 14.4413 64.0743 17.0545 67.2141 14.6848C67.5604 14.4232 67.863 14.2393 67.8864 14.276C67.9098 14.3126 68.2034 14.6662 68.5389 15.0617C69.2827 15.9386 69.2859 15.9939 68.6092 16.2935C67.834 16.6365 66.8353 18.105 66.8117 18.9363C66.7699 20.408 68.9445 20.8252 70.6778 19.6783L71.4215 19.1859L71.9126 20.1551C72.1827 20.6882 72.3767 21.1409 72.3434 21.161C72.3104 21.1812 71.8985 21.3918 71.4284 21.6289C68.1227 23.2963 69.7268 26.6078 73.0988 25.0774C73.8605 24.7315 73.9217 24.7288 74.029 25.0341C74.0923 25.2138 74.2616 25.6538 74.4054 26.0119C74.7068 26.7632 74.6561 26.831 73.5583 27.1433C72.625 27.4089 71.7705 28.259 71.5908 29.1004C71.3098 30.4171 73.2222 31.2643 75.2519 30.7227C75.6987 30.6034 75.7635 30.6515 75.8693 31.1809C76.1265 32.4669 76.0494 32.6602 75.2262 32.7919C71.7975 33.3401 71.7935 36.664 75.2217 36.664H75.9876V37.7774V38.8908L74.856 38.9934C71.5207 39.2959 71.727 42.1249 75.1217 42.6391C75.5717 42.7073 75.799 42.7288 75.8976 42.8527C76.0065 42.9896 75.9585 43.2514 75.8805 43.839L75.7545 44.7892L74.4937 44.7634C72.4116 44.721 71.424 45.4153 71.7107 46.7204C71.8442 47.3287 73.2393 48.4263 73.898 48.4413C74.5712 48.4567 74.6894 48.7181 74.4513 49.664C74.2399 50.5033 74.1898 50.5576 73.7287 50.4478C70.048 49.5717 68.4968 52.0211 71.6073 53.7975C72.4715 54.2911 72.5093 54.4233 72.0581 55.3695C71.6936 56.134 71.6675 56.1429 70.9276 55.7571C68.2297 54.35 66.5494 56.8344 68.8473 58.8332L69.6565 59.5373L69.0811 60.3537C68.4884 61.1945 68.3075 61.3097 68.1022 60.9774C67.1639 59.4592 63.9628 59.9879 64.3154 61.6028C64.4641 62.284 65.4046 63.753 65.7701 63.8748C65.9172 63.9238 65.7407 64.2339 65.3011 64.6989C64.6892 65.3465 64.5526 65.4126 64.2606 65.2025C61.295 63.0686 59.4434 64.1159 60.8931 67.1075L61.3758 68.1039L60.795 68.6263C60.0747 69.2743 59.838 69.2789 59.2559 68.6558C57.2325 66.4899 54.7766 68.1294 56.137 70.7376C56.318 71.0846 56.4152 71.2692 56.3702 71.4073C56.3184 71.5659 56.0792 71.6633 55.5639 71.8752L54.7084 72.227L54.3361 71.7802C54.1313 71.5344 53.9611 71.2762 53.9575 71.2065C53.9436 70.9265 52.6345 70.2886 52.0737 70.2886C50.9715 70.2886 50.4505 71.8053 50.9949 73.4289C51.1114 73.7762 49.3507 74.7334 49.1306 74.4428C49.1015 74.4044 48.9668 74.0946 48.8314 73.7545C47.7823 71.1199 45.2126 71.7069 45.2126 74.5811C45.2126 75.4964 45.1946 75.5119 43.9303 75.689C43.2727 75.7811 43.123 75.7464 43.123 75.5013C43.123 75.0057 42.2088 73.6014 41.714 73.3364C40.713 72.8007 39.6832 73.6614 39.4133 75.2593L39.2902 75.9876H38.298H37.3059L36.9668 74.8562C36.2997 72.6284 34.4855 72.4873 33.7068 74.6024C33.2579 75.8223 33.2258 75.8467 32.2632 75.7023L31.426 75.5767L31.2081 74.4306C30.9659 73.1556 30.3937 72.3782 29.6977 72.3782C29.1515 72.3782 27.771 73.595 27.616 74.2131C27.4954 74.6934 27.452 74.6943 26.1207 74.2407C25.5845 74.0579 25.5541 73.9943 25.6063 73.1649C25.7583 70.7553 24.079 70.0486 22.4224 71.825L21.7009 72.5986L20.9116 72.1958C20.1439 71.8043 20.1263 71.7739 20.268 71.0883C20.8092 68.4692 19.4078 67.4453 17.5077 69.0716L16.734 69.734L15.9658 69.249C15.1029 68.7042 15.0849 68.6463 15.4825 67.6947C16.3683 65.5747 14.7682 64.3266 12.841 65.6343C12.402 65.9322 12.1857 66.0827 11.9863 66.0629C11.784 66.0429 11.5992 65.8478 11.2173 65.4538C10.6208 64.8383 10.5993 64.7718 10.8664 64.3615C12.374 62.0439 10.3495 60.046 8.23649 61.766C8.08926 61.8858 7.80165 61.6885 7.34363 61.1535L6.6681 60.3642L7.23706 59.656C8.24656 58.3997 8.27201 57.3137 7.30431 56.7956C6.90803 56.5836 6.37156 56.5935 4.89208 56.8403C4.67457 56.8765 4.39778 56.6264 4.08946 56.1144L3.61891 55.3332L4.37195 54.6366C6.13847 53.0021 5.52297 51.3885 3.18825 51.5329L2.1022 51.6L1.81097 50.872C1.40729 49.8633 1.43769 49.7109 2.10068 49.4174C4.26196 48.4609 3.79824 46.11 1.42477 45.9909C0.284764 45.9336 0.268996 45.9193 0.127089 44.8131L0.0148176 43.9385L0.749618 43.7183C3.13582 43.0035 2.80907 40.3088 0.332446 40.2776C0.0539512 40.2742 0 40.092 0 39.1547V38.0362L0.641715 37.9157C2.85846 37.4999 2.84346 35.3808 0.617399 34.448C0.0273556 34.2007 0 34.1433 0 33.1471V32.1048H0.826745C3.32104 32.1048 3.75569 29.9192 1.51215 28.6582C0.689208 28.1958 0.67287 28.1511 0.955924 27.1323L1.14988 26.4342L2.15463 26.5379C4.80983 26.8119 5.6664 23.9958 3.23441 22.9883C2.93773 22.8654 2.76932 22.7989 2.71684 22.6809C2.64757 22.5251 2.78024 22.2795 3.08643 21.696C3.4297 21.0419 3.58966 20.9034 3.89437 20.9963C5.55792 21.5035 6.24998 21.4897 6.88638 20.9367C7.58945 20.3255 7.18254 18.7199 6.09193 17.8022L5.52145 17.3221L6.01214 16.5923C6.28209 16.1909 6.52297 15.8396 6.54766 15.8115C6.57217 15.7836 6.96844 15.9314 7.42798 16.1398C10.4223 17.4984 11.5243 15.6572 9.41544 12.8193C9.15176 12.4642 9.18044 12.381 9.8005 11.7042L10.4705 10.9728L10.8867 11.3533C13.1614 13.4316 15.438 12.1493 14.1308 9.526C13.8577 8.97756 13.6652 8.50852 13.7034 8.48364C13.7416 8.45875 14.0929 8.20267 14.484 7.91468L15.1951 7.39132L15.973 8.11244C18.3558 10.3218 20.4025 8.64986 18.9295 5.69717C18.6325 5.10181 18.7663 4.87442 19.6968 4.3936C20.3033 4.08035 20.3751 4.11416 20.8956 4.95762C22.5482 7.63505 25.1981 6.19926 24.1878 3.17381C23.9735 2.5321 23.9828 2.44243 24.2741 2.35258C24.454 2.2973 24.881 2.13031 25.2233 1.98157C25.8434 1.71219 26.2157 2.04008 26.2157 2.85523C26.2157 3.19433 27.3772 4.33965 27.9087 4.52487C29.2003 4.97529 29.9452 3.88601 29.7771 1.79274L29.6796 0.578836L30.3698 0.462955C30.7493 0.399125 31.1828 0.333016 31.3331 0.316108C31.4946 0.297682 31.6563 0.517856 31.7286 0.854861ZM48.1977 8.97135C56.894 12.2244 63.7533 19.2409 66.7936 28.0387C68.0366 30.182 68.6682 33.3575 68.671 37.5189C68.6738 41.4493 68.6168 42.0031 67.8714 45.3076C66.5736 51.059 63.1604 56.7856 59.4306 60.2632C53.769 65.9676 45.922 69.5 37.25 69.5C19.9911 69.5 6 55.5089 6 38.25C6 20.9911 19.9911 7 37.25 7C40.3025 7 43.2527 7.43764 46.0414 8.25362C46.4833 8.3511 46.7782 8.41665 46.8274 8.42855C47.1883 8.51571 47.67 8.71185 48.1977 8.97135Z" fill="#4D4D4D"/>
<path d="M36.9895 66.9652C30.3409 66.5083 24.3503 64.0725 19.3316 59.7856C18.2371 58.8507 16.4843 57.037 15.5536 55.8763C14.7084 54.8224 13.5704 53.165 12.9527 52.0886C10.8129 48.3593 9.4996 44.1968 9.09468 39.86C8.96878 38.5116 8.96838 35.9154 9.09385 34.5475C9.70922 27.8387 12.4813 21.6699 17.0953 16.7419C17.3638 16.4552 17.6234 16.2206 17.6722 16.2206C17.7658 16.2206 19.1823 17.6061 19.1823 17.6976C19.1823 17.7269 18.9077 18.0392 18.572 18.3918C15.3822 21.7425 12.9099 26.4088 11.854 31.0717C11.3582 33.2608 11.1888 34.8227 11.1888 37.2018C11.1888 39.1341 11.2691 40.139 11.5617 41.8657C12.482 47.2965 15.1204 52.4735 18.9884 56.4383C23.49 61.0527 29.295 63.9002 35.756 64.6634C36.9339 64.8025 39.5363 64.8532 40.7534 64.7608C47.176 64.2728 52.9865 61.7465 57.6646 57.4083L58.35 56.7726L59.118 57.5398L59.886 58.307L59.6028 58.6005C59.4471 58.7619 58.9756 59.1961 58.5551 59.5654C53.7604 63.7764 47.8579 66.308 41.4492 66.9024C40.4227 66.9976 37.9641 67.0322 36.9895 66.9652H36.9895ZM35.4713 62.1631C34.4163 62.0166 33.1945 61.7706 32.2915 61.5232L31.5788 61.3279L30.4254 60.3174C29.791 59.7617 29.2364 59.2735 29.193 59.2326C29.1306 59.1739 29.1993 59.0424 29.5183 58.6101C30.2955 57.5566 30.8875 56.1727 31.1144 54.8793C31.2493 54.1105 31.2479 52.7682 31.1114 51.9897C30.5727 48.9172 28.387 46.3193 25.4764 45.2921C24.6332 44.9945 23.9159 44.8558 22.8367 44.7816C21.1676 44.6669 20.1777 44.4097 18.8343 43.7417C17.027 42.843 15.6244 41.4608 14.693 39.6604C14.0239 38.3671 13.6551 36.9983 13.6645 35.8431C13.6754 34.503 13.9992 32.4337 14.3193 31.6581C15.5518 28.6715 18.1733 26.5513 21.4279 25.9088C22.2136 25.7536 24.4174 25.7551 25.6978 25.9117C31.8907 26.6688 37.4209 29.2781 41.8415 33.5286C44.044 35.6465 45.9607 38.2594 47.3644 41.0579C48.8372 43.9942 49.7746 47.223 50.1565 50.6753C50.2872 51.8565 50.3044 54.8141 50.1871 55.9395C50.0234 57.511 49.6165 59.8226 49.4731 59.9957C49.298 60.2071 46.5393 61.2222 45.2277 61.5578L44.6097 61.7159L42.9187 61.0807C41.9887 60.7313 41.2079 60.427 41.1837 60.4044C41.1594 60.3818 41.2253 60.1215 41.3301 59.8261C41.7358 58.6824 42.0878 57.1048 42.2819 55.5603C42.3989 54.6293 42.3796 52.0843 42.2479 51.0734C41.8349 47.9035 40.7976 45.1071 39.063 42.4877C35.8318 37.6081 30.6207 34.4368 24.7177 33.7574C22.8304 33.5402 22.1869 33.6938 21.7298 34.4707C21.5773 34.7298 21.5546 34.8347 21.5553 35.2743C21.5563 35.8559 21.6403 36.0593 22.0386 36.4455C22.3692 36.766 22.7082 36.86 23.8317 36.9424C28.9449 37.3173 33.5857 40.056 36.4257 44.3746C39.6583 49.2899 40.0226 55.6469 37.3711 60.8688C36.7679 62.0566 36.612 62.2924 36.4352 62.2841C36.3573 62.2804 35.9236 62.226 35.4713 62.1631H35.4713ZM21.8238 57.7428C20.1143 57.4307 18.7818 56.1973 18.3556 54.5324C18.206 53.9478 18.1952 53.0143 18.3314 52.4321C18.6045 51.2643 19.5196 50.1095 20.5763 49.5991C21.3509 49.225 21.8358 49.1277 22.7564 49.1619C23.4039 49.1859 23.5908 49.2182 24.0283 49.3815C25.3338 49.8687 26.2685 50.8422 26.6846 52.1477C27.0314 53.2362 26.9412 54.3386 26.4182 55.4024C25.8952 56.4659 24.8375 57.3388 23.7052 57.6412C23.2467 57.7636 22.2366 57.8182 21.8238 57.7428ZM54.7651 53.8885L53.4999 53.854L53.4859 53.1905C53.4635 52.1304 53.3449 50.5195 53.2129 49.4836C52.5085 43.955 50.2091 38.56 46.6752 34.1446C42.1612 28.5046 35.7825 24.6195 28.6668 23.176C26.9784 22.8334 25.6563 22.6782 23.5787 22.5784L22.1238 22.5086L22.0922 20.4863C22.0748 19.3741 22.0769 18.4267 22.0969 18.3811C22.1481 18.2643 23.3776 17.2631 24.1063 16.7449C24.8205 16.2371 25.8287 15.5975 26.5702 15.182L27.0946 14.8881L27.614 14.9573C38.0224 16.3439 47.3284 21.778 53.641 30.1554C57.4499 35.2101 59.9733 41.2143 60.96 47.5704C61.0494 48.1463 61.1225 48.6942 61.1225 48.788C61.1225 49.2399 59.3032 52.0277 58.1027 53.4154L57.6685 53.9172L56.8494 53.9201C56.3989 53.9217 55.4609 53.9075 54.7651 53.8885L54.7651 53.8885ZM62.2602 39.647C62.2282 39.5708 62.0714 39.153 61.9118 38.7185C61.2184 36.8318 59.94 34.1308 58.9057 32.3672C56.228 27.8015 52.7644 23.8044 48.6606 20.544C45.2267 17.8158 41.2651 15.5922 37.0686 14.0374C36.6225 13.8722 36.262 13.7031 36.262 13.6593C36.262 13.6156 36.379 13.2514 36.5221 12.8498C36.8258 11.9974 36.6849 12.075 38.0332 12.0178C41.2325 11.882 44.9119 12.5292 48.136 13.7947C55.5885 16.72 61.3007 23.2359 63.2642 31.0512C63.8097 33.2225 63.9989 34.8331 64 37.3147C64.0008 38.8918 63.9867 39.1743 63.9059 39.2252C63.8537 39.258 63.4752 39.3975 63.0647 39.5352L62.3184 39.7855L62.2602 39.647Z" fill="#F2241F"/>
</svg>
